<?xml version="1.0" standalone="no"?>
<!DOCTYPE svg PUBLIC "-//W3C//DTD SVG 20010904//EN"
 "http://www.w3.org/TR/2001/REC-SVG-20010904/DTD/svg10.dtd">
<svg version="1.0" xmlns="http://www.w3.org/2000/svg"
 width="500.000000pt" height="500.000000pt" viewBox="0 0 500.000000 500.000000"
 preserveAspectRatio="xMidYMid meet">

<g transform="translate(0.000000,500.000000) scale(0.100000,-0.100000)"
fill="#269630" stroke="none">
<path d="M2453 4203 c-19 -57 -48 -113 -109 -209 l-69 -109 0 -80 c1 -65 7
-94 31 -155 32 -81 137 -247 200 -318 l39 -44 51 64 c118 146 182 264 210 385
23 100 10 156 -62 254 -33 45 -97 169 -107 209 -5 18 -13 20 -91 20 -74 0 -88
-3 -93 -17z"/>
<path d="M3058 3504 c-187 -330 -275 -439 -405 -496 -54 -24 -137 -22 -194 5
-58 28 -182 133 -373 315 -212 202 -263 235 -365 235 -104 0 -146 -30 -225
-159 -76 -124 -127 -242 -343 -794 -59 -151 -149 -355 -219 -496 -134 -272
-215 -363 -395 -448 -77 -37 -235 -86 -274 -86 -31 0 -83 -38 -122 -88 -32
-42 -33 -47 -33 -133 l0 -89 41 -45 c36 -39 45 -43 72 -39 93 16 335 109 437
167 165 94 407 403 570 727 26 52 73 169 105 260 159 459 256 653 345 690 63
26 145 -20 326 -180 217 -193 342 -388 399 -620 l25 -105 0 -498 c0 -309 4
-505 10 -517 27 -50 163 -64 219 -23 l26 20 6 519 c5 429 9 535 23 609 38 202
75 312 160 481 67 133 159 256 226 304 83 59 216 -5 317 -152 112 -164 188
-330 385 -843 64 -165 187 -372 330 -553 120 -150 332 -269 515 -287 67 -6 76
-5 117 19 56 33 102 86 117 135 16 55 -8 124 -64 179 l-43 42 -79 -11 c-44 -6
-83 -13 -86 -15 -16 -9 -129 20 -180 48 -62 32 -199 142 -232 186 -12 15 -42
50 -67 78 -85 94 -196 340 -345 759 -150 422 -315 763 -429 884 -68 71 -109
91 -190 91 l-66 0 -42 -76z"/>
</g>
</svg>
